# xmcd
#
# Track frame offsets:
#  150
#  19634
#  31825
#  58916
#  80900
#  96494
#  155979
#  168859
#  177875
#  188836
#  196096
#  210999
#  222333
#  239017
#  266429
#  277242
#  296646
#
# Disc length: 4227 seconds
#
# Revision: 0
# Processed by: cddbd v1.5.1PL2 Copyright (c) Steve Scherf et al.
# Submitted via: Collectorz.com_Music_Collector 6.9
#
DISCID=02108111
DTITLE=Bruce Springsteen - Cool Rockin' Daddy In The Usa - Born In The Usa Tour Compilation - Disc 6
DYEAR=1985
DGENRE=
TTITLE0=10th Avenue Freeze-Out
TTITLE1=This Land Is Your Land
TTITLE2=Thunder Road
TTITLE3=Trapped
TTITLE4=Travellin' Band
TTITLE5=Twist And Shout - Do You Love Me
TTITLE6=Two Hearts
TTITLE7=Intro To Used Cars
TTITLE8=Used Cars
TTITLE9=Intro To War
TTITLE10=War
TTITLE11=When I Grow Up To Be A Man
TTITLE12=Who'll Stop The Rain
TTITLE13=A Woman's Got The Power
TTITLE14=Woolly Bully
TTITLE15=Working On The Highway
TTITLE16=Wreck On The Highway
EXTD=
EXTT0=
EXTT1=
EXTT2=
EXTT3=
EXTT4=
EXTT5=
EXTT6=
EXTT7=
EXTT8=
EXTT9=
EXTT10=
EXTT11=
EXTT12=
EXTT13=
EXTT14=
EXTT15=
EXTT16=
PLAYORDER=
